<?xml version="1.0" encoding="utf-8"?>
<!-- Generator: Adobe Illustrator 16.0.0, SVG Export Plug-In . SVG Version: 6.00 Build 0)  -->
<!DOCTYPE svg PUBLIC "-//W3C//DTD SVG 1.1//EN" "http://www.w3.org/Graphics/SVG/1.1/DTD/svg11.dtd">
<svg version="1.1" id="Layer_1_copy" xmlns="http://www.w3.org/2000/svg" xmlns:xlink="http://www.w3.org/1999/xlink" x="0px"
	 y="0px" width="187.625px" height="149.979px" viewBox="-2.544 -1.903 187.625 149.979"
	 enable-background="new -2.544 -1.903 187.625 149.979" xml:space="preserve">
<path opacity="0.2" enable-background="new    " d="M90.953,127.427l16.361-0.568l0.146,4.146c0.235-1.574,1.069-2.63,1.854-3.296
	c1.34-1.134,3.067-1.912,5.138-2.313c0.272-0.055,0.555-0.099,0.842-0.134l0.738-0.091c0.325-0.024,0.573-0.034,0.817-0.034
	c1.28,0,2.528,0.245,3.707,0.729c0.846,0.345,1.856,1.018,2.563,2.323c0.041-0.894,0.275-1.772,0.703-2.634
	c0.824-1.664,2.574-2.938,5.35-3.896c1.326-0.456,2.582-0.687,3.738-0.687c0.771,0,1.512,0.102,2.203,0.302
	c0.688,0.198,1.492,0.563,2.242,1.23l-1.055-1.98l7.217-3.837l0.416,0.785l-0.031-0.988l8.402-4.469v0.025l9.695-7.047l0.184,0.252
	l5.213-4.53l2.947,1.298l-0.889-3.089l6.553-5.695l3.215,12.755l5.857,6.737l-6.349,5.521l-5.856-6.742l-8.754-3.589l1.879,2.586
	l-0.336,0.245l4.021,5.536l-4.731,3.438l0.022,0.03l5.067-3.684l4.104,5.648l-11.828,8.595l-10.188-14.026l-0.273,6.68l9.871,7.448
	l-7.982,4.243l-1.154-0.901l0.63,1.183l-7.22,3.836l-6.209-11.678l0.502,1.454l-7.748,2.67l0.222,0.642l7.75-2.669l1.479,4.294
	c0.612,1.783,0.399,3.472-0.615,4.883c-0.82,1.145-1.861,2.075-3.09,2.765c-0.318,0.188-0.691,0.377-1.074,0.543
	c-0.35,0.153-0.691,0.286-1.014,0.396c-1.463,0.504-2.797,0.759-3.968,0.759c-0.829,0-1.604-0.127-2.297-0.377
	c-1.812-0.655-3.146-2.199-3.969-4.588l-1.533-4.449l0.824,4.24c0.42,2.156,0.063,4.052-1.063,5.634
	c-1.119,1.574-3.039,2.608-5.869,3.16c-0.896,0.175-1.733,0.263-2.492,0.263l0,0c-1.733,0-3.149-0.458-4.209-1.361
	c-1.401-1.196-2.291-2.723-2.643-4.532l-1.447-7.448l0.494,14.141l-8.436,0.298l-7.924,0.272L90.953,127.427z M70.292,145.052
	c-0.726-0.179-1.63-0.485-2.153-1.266c-0.054-0.082-0.102-0.165-0.144-0.249l-0.221,0.887l-8.132-2.025l3.125-12.532l-2.294,5.677
	c-0.821,2.034-2.153,3.43-3.958,4.145c-0.708,0.28-1.495,0.424-2.339,0.424c-1.286,0-2.694-0.317-4.307-0.969
	c-2.762-1.115-4.451-2.653-5.021-4.57c-0.523-1.766-0.439-3.527,0.251-5.239l2.852-7.057c0.111-0.273,0.23-0.528,0.356-0.766
	l-7.762,13.443l-6.81-3.933l0.002-0.016l-0.006,0.015l-7.183-4.15l10.332-17.896l13.998,8.083l-2.328,4.032
	c1.142-1.826,2.734-2.419,3.963-2.574c0.381-0.05,0.771-0.072,1.16-0.072c1.4,0,2.884,0.312,4.408,0.928
	c0.255,0.104,0.512,0.218,0.771,0.343l0.666,0.325c1.438,0.792,2.563,1.805,3.428,3.053c0.415,0.599,0.806,1.431,0.887,2.493
	l0.808-3.236l8.46,2.108c1.932,0.48,3.45,1.31,4.509,2.46c0.837,0.913,1.735,2.541,1.266,5.124l-0.024,0.114
	c-0.337,1.351-0.887,2.451-1.636,3.271c-0.138,0.152-0.285,0.295-0.439,0.428c0.42,0.784,0.526,1.653,0.304,2.543l-0.765,3.897
	l0.813,0.206l-0.999,4.009L70.292,145.052z M18.076,120.445l12.146-16.719l6.78,4.927l-12.146,16.72L18.076,120.445z M65.724,119.43
	c-0.311,0.045-0.62,0.066-0.924,0.066c-0.242,0-0.487-0.014-0.735-0.045c-1.895-0.239-3.375-1.304-4.281-3.08l-0.106-0.228
	c-0.816-1.797-0.611-3.655,0.576-5.243c0.293-0.393,0.623-0.729,0.953-1.011c-0.875-0.745-1.557-1.78-1.905-2.992
	c-0.253-0.882-0.306-1.771-0.186-2.604c-0.295,0.076-0.593,0.114-0.89,0.114c-1.502,0-2.759-1.008-3.057-2.451
	c-0.311-1.506,0.518-2.965,2.063-3.631c0.405-0.175,0.82-0.335,1.242-0.487c-1.333-1.42-2.519-3.398-3.682-5.345l-0.631-1.049
	c-1.729-2.849-1.477-5.334-0.825-6.871l-1.767-3.648c-0.252,0.049-0.511,0.084-0.774,0.107c-0.238,0.021-0.473,0.031-0.704,0.031
	c-2.953,0-5.242-1.635-5.441-3.888c-0.116-1.295,0.498-2.569,1.682-3.497c0.614-0.48,1.359-0.854,2.177-1.095
	c-2.878-0.278-5.004-2.063-5.025-4.292c-0.016-1.765,1.282-3.268,3.216-3.983c-2.079-0.902-3.372-2.666-3.125-4.546
	c0.282-2.153,2.449-3.658,5.27-3.658c0,0,0,0,0.001,0c-1.005-0.504-1.858-1.204-2.452-2.019c-0.886-1.216-1.127-2.61-0.661-3.826
	c0.597-1.563,2.247-2.533,4.307-2.533c0.871,0,1.789,0.176,2.657,0.508c0.692,0.265,1.322,0.614,1.868,1.027
	c0.025-0.039,0.051-0.078,0.077-0.116c-0.415-0.244-0.815-0.534-1.188-0.864c-2.427-2.146-3.053-5.271-1.426-7.112
	c0.708-0.801,1.75-1.24,2.935-1.24c1.447,0,3.014,0.651,4.299,1.789c0.718,0.636,1.288,1.365,1.683,2.132
	c0.021-0.01,0.042-0.018,0.062-0.026c-0.245-0.552-0.428-1.153-0.54-1.786c-0.245-1.385-0.114-2.775,0.37-3.918
	c0.587-1.386,1.658-2.311,2.939-2.537c0.203-0.036,0.407-0.054,0.61-0.054c2.19,0,4.149,2.042,4.691,4.872
	c0.805-2.43,2.658-4.083,4.647-4.083c0.294,0,0.586,0.037,0.869,0.108c1.913,0.489,3.087,2.479,3.061,4.868
	c1.063-1.116,2.392-1.779,3.688-1.779c0.605,0,1.174,0.14,1.692,0.416c1.22,0.649,1.914,1.93,2.017,3.434
	c0.831-0.567,1.744-0.886,2.642-0.886c0.491,0,0.958,0.092,1.395,0.273h1.076V40.4l1.327-2.854l-4.094,1.752v-15.83l4.217,1.962
	l-1.504-3.514l-4.512,0.08l-0.36-20.662l7.472-0.131L93.182,1.2c3.025,0,5.119,0.541,6.4,1.652c1.385,1.199,2.104,2.94,2.143,5.173
	c0.002,0.181,0.002,0.355-0.002,0.526l0.914-7.454l8.654,1.063c1.979,0.243,3.586,0.88,4.776,1.892
	c0.94,0.805,2.031,2.312,1.882,4.935l-0.011,0.115c-0.17,1.375-0.58,2.533-1.222,3.442c-0.118,0.169-0.25,0.329-0.389,0.48
	c0.517,0.729,0.728,1.581,0.611,2.491l-0.09,1.273l7.186-12.492l7.932,2.125l-0.116,14.607l4.903-12.778l7.824,3.002l-3.418,8.905
	l4.678-8.438l7.627,4.229c1.744,0.966,2.996,2.159,3.722,3.545c0.571,1.095,1.021,2.9-0.104,5.278l-0.054,0.104
	c-0.674,1.216-1.489,2.138-2.426,2.736c-0.172,0.111-0.353,0.21-0.535,0.298c0.203,0.864,0.082,1.732-0.36,2.534l-0.074,0.15
	l7.043-10.062l6.867,4.808l-2.599,3.71l2.847-3.39l11.199,9.397l-4.375,5.21L174.297,40l-4.396,5.242l-4.482-3.762l-0.024,0.029
	l4.801,4.028l-4.487,5.348L154.51,41.49l0.027-0.032l-5.711-3.997l0.229-0.33l-3.634-2.014c-0.655-0.363-1.452-0.896-1.754-1.789
	c-0.028-0.089-0.053-0.178-0.069-0.266l-0.44,0.796l-5.98-3.313l-7.824-3.002l0.148-0.388l-6.074-1.628L123.7,22.1l-0.548-0.146
	l-1.479,3.105l-5.534-1.483l-5.121-0.628c-0.75-0.092-1.687-0.29-2.297-1.001c-0.063-0.072-0.119-0.146-0.171-0.223l-0.11,0.907
	l-3.86-0.474l-1.568,3.372l3.801-1.627v15.83l-3.83-1.781l1.061,2.479v2.323h1.078c0.437-0.183,0.904-0.273,1.396-0.273
	c0.896,0,1.81,0.316,2.639,0.883c0.002-0.037,0.007-0.074,0.009-0.11c0.131-1.499,0.862-2.709,2.014-3.32
	c0.518-0.276,1.086-0.416,1.691-0.416c1.295,0,2.625,0.664,3.688,1.781c-0.011-0.745,0.098-1.467,0.315-2.119
	c0.482-1.427,1.48-2.429,2.742-2.75c0.283-0.072,0.576-0.109,0.869-0.109c1.99,0,3.842,1.651,4.646,4.081
	c0.541-2.828,2.5-4.869,4.69-4.869c0.203,0,0.406,0.018,0.609,0.054c1.28,0.227,2.354,1.151,2.938,2.536
	c0.484,1.144,0.615,2.535,0.371,3.92c-0.113,0.633-0.295,1.235-0.541,1.787c0.02,0.009,0.041,0.018,0.061,0.026
	c0.396-0.768,0.966-1.497,1.685-2.133c1.285-1.139,2.853-1.79,4.3-1.79c1.186,0,2.227,0.439,2.936,1.239
	c1.627,1.844,1,4.968-1.426,7.113c-0.373,0.331-0.773,0.621-1.189,0.865c0.027,0.038,0.053,0.077,0.078,0.115
	c0.545-0.413,1.176-0.764,1.867-1.028c0.867-0.332,1.787-0.508,2.656-0.508c2.059,0,3.709,0.971,4.309,2.533
	c0.807,2.107-0.545,4.56-3.111,5.845l0,0c2.818,0,4.984,1.504,5.27,3.658c0.171,1.29-0.389,2.59-1.532,3.566
	c-0.459,0.393-1,0.723-1.595,0.979c0.457,0.167,0.882,0.378,1.263,0.631c1.256,0.83,1.969,2.053,1.955,3.354
	c-0.021,2.239-2.168,4.03-5.011,4.297c0.812,0.24,1.552,0.611,2.162,1.09c1.187,0.928,1.799,2.202,1.683,3.499
	c-0.199,2.251-2.488,3.886-5.44,3.886c-0.23,0-0.466-0.01-0.703-0.031c-0.265-0.022-0.521-0.06-0.775-0.106l-1.766,3.647
	c0.651,1.537,0.903,4.022-0.824,6.871l-0.633,1.053c-1.164,1.943-2.349,3.922-3.683,5.341c0.422,0.151,0.841,0.313,1.244,0.488
	c1.543,0.668,2.369,2.127,2.06,3.633c-0.3,1.441-1.558,2.448-3.058,2.448c-0.295,0-0.592-0.038-0.89-0.113
	c0.121,0.834,0.068,1.723-0.186,2.604c-0.348,1.211-1.029,2.245-1.904,2.991c0.328,0.281,0.658,0.617,0.951,1.01
	c1.189,1.587,1.396,3.446,0.584,5.235l-0.086,0.184c-0.936,1.833-2.416,2.896-4.309,3.133c-0.246,0.031-0.49,0.045-0.732,0.045
	c-0.9,0-1.834-0.196-2.775-0.586c-8.043-3.32-18.521-5.147-29.508-5.147c-4.737,0-9.414,0.34-13.897,1.01
	c-2.864,0.429-5.639,0.994-8.245,1.681c-2.532,0.667-4.92,1.452-7.104,2.337l-0.046,0.042l-0.37,0.127
	c-0.296,0.117-0.591,0.216-0.884,0.294l-0.817,0.272L65.724,119.43z M67.833,101.678c0.583,0.664,1.036,1.479,1.299,2.395
	c0.232,0.809,0.296,1.622,0.212,2.395c1.978-0.606,4.025-1.149,6.125-1.624c-0.434-0.645-0.744-1.388-0.885-2.191
	c-0.134-0.761-0.109-1.532,0.063-2.262c-1.96,0.298-3.835,0.639-5.62,1.023C68.621,101.5,68.224,101.588,67.833,101.678z
	 M118.747,104.826c2.096,0.474,4.133,1.018,6.11,1.629c-0.082-0.77-0.019-1.579,0.213-2.384c0.265-0.914,0.716-1.729,1.298-2.394
	c-0.392-0.09-0.789-0.178-1.195-0.266c-1.783-0.386-3.656-0.727-5.615-1.023c0.172,0.729,0.195,1.501,0.063,2.262
	C119.48,103.447,119.174,104.186,118.747,104.826z M84.081,99.345c0.28,0.521,0.483,1.096,0.59,1.703
	c0.13,0.742,0.11,1.494-0.05,2.207c1.262-0.155,2.536-0.289,3.816-0.397c-0.32-0.637-0.502-1.367-0.502-2.145
	c0-0.57,0.098-1.116,0.278-1.62C86.806,99.161,85.428,99.245,84.081,99.345z M105.77,102.851c1.07,0.089,2.125,0.193,3.16,0.313
	c0.217,0.025,0.434,0.051,0.648,0.077c-0.158-0.709-0.177-1.456-0.047-2.193c0.106-0.607,0.309-1.183,0.59-1.705
	c-1.349-0.1-2.724-0.184-4.131-0.25c0.18,0.503,0.276,1.05,0.276,1.62C106.268,101.487,106.088,102.216,105.77,102.851z
	 M120.79,91.105c0.455,0.074,0.907,0.15,1.354,0.23c1.864,0.335,3.397,0.591,4.742,0.591c1.383,0,2.565-0.25,3.543-1.223
	l-6.111-0.592l0.22-0.486l-2.951,1.557l0.246-2.421c-0.396,0.378-0.951,0.649-1.699,0.714L120.79,91.105z M63.771,90.706
	c0.973,0.973,2.154,1.223,3.538,1.223c1.45,0,3.202-0.314,4.747-0.592c0.447-0.08,0.901-0.156,1.358-0.23l0.655-1.63
	c-0.747-0.063-1.303-0.335-1.699-0.711l0.248,2.421l-2.949-1.558l0.218,0.484L63.771,90.706z M84.61,89.776
	c2.085-0.16,4.257-0.281,6.48-0.36l1.005-2.556l-4.701,1.782v-1.613l-2.249,2.289l-0.488-2.416c-0.247,0.446-0.68,0.881-1.426,1.182
	L84.61,89.776z M103.176,89.418c2.195,0.079,4.344,0.199,6.416,0.358l1.379-1.693c-0.746-0.301-1.18-0.735-1.426-1.183l-0.49,2.419
	l-2.246-2.289v1.991l-4.436-1.826L103.176,89.418z M72.663,82.995c-0.082,0-0.189,0.032-0.309,0.093
	c-0.21,0.107-0.409,0.556-0.36,1.911c0.267-0.41,0.729-0.876,1.518-1.152C73.207,83.262,72.859,82.995,72.663,82.995z
	 M120.691,83.845c0.603,0.209,1.08,0.552,1.429,1.021c0.03,0.044,0.061,0.087,0.09,0.13c0.049-1.354-0.15-1.801-0.361-1.908
	c-0.119-0.061-0.227-0.093-0.309-0.093C121.344,82.995,120.997,83.262,120.691,83.845z M111.398,81.461
	c-0.056,0-0.11,0.007-0.172,0.018c-0.233,0.041-0.56,0.409-0.918,1.716c0.604-0.508,1.323-0.631,1.789-0.649
	c-0.078-0.428-0.216-0.746-0.371-0.929C111.625,81.499,111.547,81.461,111.398,81.461z M82.105,82.544
	c0.463,0.02,1.182,0.143,1.787,0.648c-0.358-1.307-0.682-1.674-0.917-1.715c-0.061-0.011-0.118-0.018-0.173-0.018
	c-0.147,0-0.226,0.038-0.326,0.153C82.319,81.797,82.183,82.116,82.105,82.544z M61.433,77.355
	c-0.078,1.439-0.149,2.976-0.199,4.273c0.615-0.424,3.687-2.554,3.687-2.554l1.009,2.241c0.195-1.392,0.794-2.667,1.717-3.613
	c1.099-1.127,2.61-1.747,4.257-1.747c0.095,0,0.19,0.002,0.286,0.006c-0.583-2.554-0.516-4.9-0.217-6.813l-0.438-0.281
	c-0.02-0.012-2.471-1.541-5.295-1.541c-1.513,0-2.869,0.448-4.031,1.332c-2.159,1.642-3.515,3.157-4.336,4.274
	c0.162,0.936,0.345,1.874,0.549,2.809l3.149-0.933L61.433,77.355z M132.971,81.629c-0.051-1.299-0.123-2.834-0.201-4.272
	l-0.137-2.548l3.15,0.935c0.202-0.935,0.387-1.874,0.547-2.812c-0.82-1.115-2.177-2.631-4.334-4.272
	c-1.162-0.883-2.521-1.332-4.031-1.332c-2.824,0-5.277,1.529-5.301,1.544l-0.435,0.273c0.299,1.914,0.367,4.263-0.215,6.817
	c0.096-0.004,0.188-0.006,0.284-0.006c1.646,0,3.158,0.62,4.257,1.747c0.924,0.947,1.522,2.226,1.719,3.616l1.011-2.244
	C129.286,79.076,132.355,81.206,132.971,81.629z M102.338,76.318l4.471-1.694v1.494c1.113-1.176,2.617-1.871,4.248-1.871
	c0.58,0,1.305,0.088,2.117,0.378c0.496-6.532,4.498-10.623,4.695-10.82l0.323-0.324c-1.769,0.462-3.815,1.276-5.955,2.381
	c-3.385,1.747-5.737,2.815-7.28,3.458c-0.125,0.568-0.271,1.105-0.445,1.623h0.051c0,0-0.797,1.934-0.854,2.07L102.338,76.318z
	 M83.146,74.247c1.63,0,3.135,0.695,4.249,1.871v-1.873l4.465,1.838l-0.332-0.74L91.4,75.074c-0.135-0.289-0.265-0.587-0.395-0.886
	l-1.457-3.246h0.143c-0.173-0.518-0.321-1.054-0.446-1.623c-1.542-0.643-3.896-1.712-7.278-3.459
	c-2.14-1.104-4.191-1.919-5.959-2.382l0.324,0.324c0.198,0.199,4.201,4.289,4.695,10.821C81.84,74.335,82.564,74.247,83.146,74.247z
	 M71.746,63.21c0.531,0.466,1.01,1.014,1.435,1.64c0.151-0.354,0.259-0.563,0.283-0.609l0.597-1.141
	c-0.347-0.04-0.674-0.062-0.981-0.062C72.503,63.039,72.071,63.106,71.746,63.21z M120.738,64.24
	c0.023,0.046,0.134,0.256,0.283,0.609c0.426-0.625,0.903-1.173,1.437-1.64c-0.324-0.104-0.756-0.171-1.332-0.171
	c-0.308,0-0.638,0.021-0.984,0.062L120.738,64.24z M66.89,48.944c-2.413,0-5.714,0.848-7.736,4.885
	c-1.353,2.708-2.045,6.178-2.067,10.343c2.243-1.272,5.082-2.543,7.872-2.856c0.895-1.613,2.555-3.612,5.435-4.156
	c0.886-0.167,1.744-0.249,2.624-0.249c3.185,0,6.564,1.079,11.663,3.723c1.639,0.851,2.964,1.479,4.02,1.945
	c-0.006-0.354-0.014-0.713-0.025-1.074l-0.101-3.554c-5.239-2.521-10.479-5.039-15.715-7.535
	C70.839,49.453,68.774,48.944,66.89,48.944z M129.245,61.315c2.787,0.313,5.625,1.582,7.866,2.854
	c-0.024-4.165-0.719-7.634-2.071-10.341c-2.019-4.037-5.313-4.884-7.722-4.884c-1.881,0-3.942,0.509-5.965,1.471
	c-5.25,2.497-10.487,5.017-15.726,7.537l-0.102,3.551c-0.012,0.361-0.018,0.72-0.025,1.075c1.058-0.466,2.381-1.095,4.023-1.946
	c5.098-2.644,8.477-3.723,11.662-3.723c0.879,0,1.736,0.082,2.623,0.249C126.688,57.703,128.35,59.702,129.245,61.315z
	 M100.252,20.517l1.242-10.112c-0.48,2.035-1.621,3.064-2.627,3.586c-1.437,0.745-3.119,1.162-5.009,1.244l0.094,5.282H100.252
	L100.252,20.517z M0,103.906l14.354-14.862l7.139,6.896l-2.172,3.56l3.533-2.246l6.972,6.732l-14.355,14.863L0,103.906z
	 M14.647,35.397l12.54-10.523l5.44,6.483l-4.936-7.049l6.866-4.809l5.314,7.589l-1.626-3.19c-0.92-1.807-1.047-3.655-0.366-5.348
	c0.666-1.652,2.155-3.049,4.553-4.27c1.65-0.84,3.212-1.266,4.642-1.266c0.378,0,0.754,0.029,1.117,0.088
	c1.339,0.216,3.199,0.991,4.456,3.458l2.29,4.491L51.35,10.013l15.569-5.06l6.386,19.653L59.1,29.222l0.17,0.334l-5.825,2.965
	l-0.017-0.024c-0.677,0.691-1.488,1.28-2.419,1.755l-0.964-1.528l0.834,1.595l-0.236,0.119c-0.944,0.428-1.947,0.645-2.982,0.645
	c-0.451,0-0.915-0.042-1.377-0.124c-0.401-0.07-0.785-0.189-1.152-0.355l1.278,1.823l-6.001,4.204l0.062,0.074l-6.121,5.135
	l-6.422,5.389L14.647,35.397z"/>
<path fill="#FFFFFF" d="M88.409,124.427l16.36-0.568l0.146,4.146c0.236-1.574,1.069-2.63,1.855-3.296
	c1.339-1.134,3.066-1.912,5.136-2.313c0.274-0.055,0.556-0.099,0.843-0.134l0.737-0.091c0.327-0.024,0.574-0.034,0.819-0.034
	c1.281,0,2.527,0.245,3.707,0.729c0.845,0.345,1.857,1.018,2.564,2.323c0.041-0.894,0.274-1.772,0.702-2.634
	c0.824-1.664,2.573-2.938,5.349-3.896c1.326-0.456,2.584-0.687,3.74-0.687c0.77,0,1.51,0.102,2.201,0.302
	c0.688,0.198,1.493,0.563,2.242,1.23l-1.055-1.98l7.217-3.837l0.417,0.785l-0.032-0.988l8.403-4.469l-0.001,0.025l9.695-7.047
	l0.185,0.252l5.212-4.53l2.947,1.298l-0.889-3.089l6.553-5.695l3.216,12.755l5.856,6.737l-6.348,5.521l-5.857-6.742l-8.754-3.589
	l1.879,2.586l-0.336,0.245l4.021,5.536l-4.732,3.438l0.022,0.03l5.067-3.684l4.104,5.648l-11.829,8.595l-10.189-14.026l-0.271,6.68
	l9.87,7.448l-7.981,4.243l-1.154-0.901l0.629,1.183l-7.219,3.836l-6.209-11.678l0.502,1.454l-7.748,2.67l0.221,0.642l7.751-2.669
	l1.479,4.294c0.611,1.783,0.398,3.472-0.617,4.883c-0.819,1.145-1.859,2.075-3.088,2.765c-0.319,0.188-0.691,0.377-1.074,0.543
	c-0.352,0.153-0.692,0.286-1.016,0.396c-1.463,0.504-2.797,0.759-3.967,0.759c-0.83,0-1.604-0.127-2.297-0.377
	c-1.811-0.655-3.146-2.199-3.969-4.588l-1.532-4.449l0.824,4.24c0.419,2.156,0.062,4.052-1.063,5.634
	c-1.117,1.574-3.037,2.608-5.867,3.16c-0.896,0.175-1.735,0.263-2.492,0.263c-0.002,0-0.002,0-0.002,0
	c-1.733,0-3.149-0.458-4.207-1.361c-1.402-1.196-2.293-2.723-2.644-4.532l-1.446-7.448l0.492,14.141l-8.436,0.298l-7.923,0.272
	L88.409,124.427z M67.748,142.052c-0.726-0.179-1.63-0.485-2.153-1.266c-0.054-0.082-0.102-0.165-0.144-0.249l-0.221,0.887
	l-8.132-2.025l3.125-12.532l-2.294,5.677c-0.821,2.034-2.153,3.43-3.958,4.145c-0.708,0.28-1.495,0.424-2.339,0.424
	c-1.286,0-2.694-0.317-4.307-0.969c-2.762-1.115-4.451-2.653-5.021-4.57c-0.523-1.766-0.439-3.527,0.251-5.239l2.852-7.057
	c0.111-0.273,0.23-0.528,0.356-0.766l-7.762,13.443l-6.81-3.933l0.002-0.016l-0.006,0.015l-7.183-4.15l10.332-17.896l13.998,8.083
	l-2.328,4.032c1.142-1.826,2.734-2.419,3.963-2.574c0.381-0.05,0.771-0.072,1.16-0.072c1.4,0,2.884,0.312,4.408,0.928
	c0.255,0.104,0.512,0.218,0.771,0.343l0.666,0.325c1.438,0.792,2.563,1.805,3.428,3.053c0.415,0.599,0.806,1.431,0.887,2.493
	l0.808-3.236l8.46,2.108c1.932,0.48,3.45,1.31,4.509,2.46c0.837,0.913,1.735,2.541,1.266,5.124l-0.024,0.114
	c-0.337,1.351-0.887,2.451-1.636,3.271c-0.138,0.152-0.285,0.295-0.439,0.428c0.42,0.784,0.526,1.653,0.304,2.543l-0.765,3.897
	l0.813,0.206l-0.999,4.009L67.748,142.052z M15.532,117.445l12.146-16.719l6.78,4.927l-12.146,16.72L15.532,117.445z M63.179,116.43
	c-0.311,0.045-0.62,0.066-0.924,0.066c-0.242,0-0.487-0.014-0.735-0.045c-1.895-0.239-3.375-1.304-4.281-3.08l-0.106-0.228
	c-0.816-1.797-0.611-3.655,0.576-5.243c0.293-0.393,0.623-0.729,0.953-1.011c-0.875-0.745-1.557-1.78-1.905-2.992
	c-0.253-0.882-0.306-1.771-0.186-2.604c-0.295,0.076-0.593,0.114-0.89,0.114c-1.502,0-2.759-1.008-3.057-2.451
	c-0.311-1.506,0.518-2.965,2.063-3.631c0.405-0.175,0.82-0.335,1.242-0.487c-1.333-1.42-2.519-3.398-3.682-5.345l-0.631-1.049
	c-1.729-2.849-1.477-5.334-0.825-6.871l-1.767-3.648c-0.252,0.049-0.511,0.084-0.774,0.107c-0.238,0.021-0.473,0.031-0.704,0.031
	c-2.953,0-5.242-1.635-5.441-3.888c-0.116-1.295,0.498-2.569,1.682-3.497c0.614-0.48,1.359-0.854,2.177-1.095
	c-2.878-0.278-5.004-2.063-5.025-4.292c-0.016-1.765,1.282-3.268,3.216-3.983c-2.079-0.902-3.372-2.666-3.125-4.546
	c0.282-2.153,2.449-3.658,5.27-3.658c0,0,0,0,0.001,0c-1.005-0.504-1.858-1.204-2.452-2.019c-0.886-1.216-1.127-2.61-0.661-3.826
	c0.597-1.563,2.247-2.533,4.307-2.533c0.871,0,1.789,0.176,2.657,0.508c0.692,0.265,1.322,0.614,1.868,1.027
	c0.025-0.039,0.051-0.078,0.077-0.116c-0.415-0.244-0.815-0.534-1.188-0.864c-2.427-2.146-3.053-5.271-1.426-7.112
	c0.708-0.801,1.75-1.24,2.935-1.24c1.447,0,3.014,0.651,4.299,1.789c0.718,0.636,1.288,1.365,1.683,2.132
	c0.021-0.01,0.042-0.018,0.062-0.026c-0.245-0.552-0.428-1.153-0.54-1.786c-0.245-1.385-0.114-2.775,0.37-3.918
	c0.587-1.386,1.658-2.311,2.939-2.537c0.203-0.036,0.407-0.054,0.61-0.054c2.19,0,4.149,2.042,4.691,4.872
	c0.805-2.43,2.658-4.083,4.647-4.083c0.294,0,0.586,0.037,0.869,0.108c1.913,0.489,3.087,2.479,3.061,4.868
	c1.063-1.116,2.392-1.779,3.688-1.779c0.605,0,1.174,0.14,1.692,0.416c1.22,0.649,1.914,1.93,2.017,3.434
	c0.831-0.567,1.744-0.886,2.642-0.886c0.491,0,0.958,0.092,1.395,0.273h1.076V37.4l1.327-2.854l-4.094,1.752v-15.83l4.216,1.962
	l-1.503-3.514l-4.512,0.08l-0.36-20.662l7.471-0.131L90.638-1.8c3.024,0,5.118,0.541,6.399,1.652
	c1.385,1.199,2.104,2.94,2.143,5.173c0.003,0.181,0.002,0.355-0.002,0.526l0.914-7.454l8.654,1.063
	c1.979,0.243,3.586,0.88,4.776,1.892c0.942,0.805,2.032,2.312,1.881,4.935l-0.01,0.115c-0.169,1.375-0.579,2.533-1.22,3.442
	c-0.12,0.169-0.25,0.329-0.389,0.48c0.516,0.729,0.726,1.581,0.61,2.491l-0.091,1.273l7.188-12.492l7.932,2.125l-0.118,14.607
	l4.905-12.778l7.824,3.002l-3.418,8.905l4.676-8.438l7.629,4.229c1.744,0.966,2.994,2.159,3.72,3.545
	c0.571,1.095,1.021,2.9-0.104,5.278l-0.053,0.104c-0.675,1.216-1.49,2.138-2.426,2.736c-0.173,0.111-0.352,0.21-0.535,0.298
	c0.203,0.864,0.081,1.732-0.361,2.534l-0.074,0.15l7.043-10.062l6.867,4.808l-2.598,3.71l2.846-3.39l11.198,9.397l-4.374,5.21
	L171.752,37l-4.396,5.242l-4.48-3.762l-0.025,0.029l4.801,4.028l-4.488,5.348l-11.197-9.396l0.027-0.032l-5.711-3.997l0.23-0.33
	l-3.633-2.014c-0.657-0.363-1.453-0.896-1.754-1.789c-0.029-0.089-0.055-0.178-0.071-0.266l-0.441,0.796l-5.979-3.313l-7.824-3.002
	l0.148-0.388l-6.074-1.628l0.271-3.427l-0.547-0.146l-1.479,3.105l-5.535-1.483l-5.122-0.628c-0.749-0.092-1.687-0.29-2.296-1.001
	c-0.063-0.072-0.119-0.146-0.17-0.223l-0.111,0.907l-3.861-0.474l-1.568,3.372l3.801-1.627v15.83l-3.829-1.781l1.062,2.479v2.323
	h1.078c0.436-0.183,0.902-0.273,1.395-0.273c0.896,0,1.809,0.316,2.639,0.883c0.002-0.037,0.006-0.074,0.008-0.11
	c0.131-1.499,0.863-2.709,2.014-3.32c0.518-0.276,1.086-0.416,1.69-0.416c1.296,0,2.625,0.664,3.689,1.781
	c-0.009-0.745,0.098-1.467,0.317-2.119c0.48-1.427,1.479-2.429,2.74-2.75c0.284-0.072,0.576-0.109,0.87-0.109
	c1.989,0,3.841,1.651,4.646,4.081c0.541-2.828,2.5-4.869,4.69-4.869c0.203,0,0.407,0.018,0.61,0.054
	c1.281,0.227,2.353,1.151,2.939,2.536c0.483,1.144,0.614,2.535,0.369,3.92c-0.111,0.633-0.295,1.235-0.541,1.787
	c0.021,0.009,0.041,0.018,0.063,0.026c0.396-0.768,0.965-1.497,1.684-2.133c1.284-1.139,2.852-1.79,4.299-1.79
	c1.186,0,2.227,0.439,2.936,1.239c1.628,1.844,1,4.968-1.426,7.113c-0.373,0.331-0.772,0.621-1.188,0.865
	c0.026,0.038,0.052,0.077,0.077,0.115c0.546-0.413,1.176-0.764,1.867-1.028c0.867-0.332,1.787-0.508,2.656-0.508
	c2.059,0,3.709,0.971,4.31,2.533c0.807,2.107-0.546,4.56-3.112,5.845c0,0,0,0,0.001,0c2.818,0,4.984,1.504,5.269,3.658
	c0.172,1.29-0.387,2.59-1.531,3.566c-0.459,0.393-1,0.723-1.596,0.979c0.457,0.167,0.881,0.378,1.263,0.631
	c1.256,0.83,1.969,2.053,1.956,3.354c-0.021,2.239-2.17,4.03-5.012,4.296c0.813,0.241,1.553,0.612,2.162,1.09
	c1.187,0.928,1.799,2.202,1.684,3.499c-0.2,2.251-2.488,3.886-5.442,3.886c-0.229,0-0.465-0.01-0.702-0.031
	c-0.264-0.022-0.521-0.06-0.775-0.106l-1.766,3.647c0.651,1.537,0.904,4.022-0.824,6.871L136.87,89.5
	c-1.164,1.943-2.349,3.922-3.682,5.341c0.421,0.151,0.84,0.313,1.244,0.488c1.543,0.668,2.369,2.127,2.059,3.633
	c-0.299,1.441-1.557,2.448-3.058,2.448c-0.295,0-0.593-0.038-0.888-0.113c0.119,0.834,0.066,1.723-0.188,2.604
	c-0.348,1.211-1.029,2.245-1.904,2.991c0.33,0.281,0.659,0.617,0.952,1.01c1.188,1.587,1.396,3.446,0.585,5.235l-0.088,0.184
	c-0.936,1.833-2.415,2.896-4.309,3.133c-0.245,0.031-0.489,0.045-0.731,0.045c-0.899,0-1.834-0.197-2.776-0.586
	c-8.041-3.32-18.521-5.147-29.508-5.147c-4.737,0-9.414,0.34-13.897,1.01c-2.864,0.429-5.639,0.994-8.245,1.681
	c-2.532,0.667-4.92,1.452-7.104,2.337l-0.046,0.042l-0.37,0.127c-0.296,0.117-0.591,0.215-0.884,0.294l-0.817,0.272L63.179,116.43z
	 M65.288,98.678c0.583,0.664,1.036,1.479,1.299,2.395c0.232,0.809,0.296,1.622,0.212,2.395c1.978-0.606,4.025-1.149,6.125-1.624
	c-0.434-0.645-0.744-1.388-0.885-2.191c-0.134-0.761-0.109-1.532,0.063-2.262c-1.96,0.298-3.835,0.639-5.62,1.023
	C66.076,98.5,65.679,98.588,65.288,98.678z M116.202,101.826c2.096,0.474,4.133,1.018,6.11,1.629
	c-0.082-0.77-0.019-1.579,0.214-2.384c0.264-0.914,0.715-1.729,1.297-2.394c-0.392-0.09-0.789-0.178-1.195-0.266
	c-1.783-0.386-3.655-0.727-5.614-1.023c0.171,0.729,0.194,1.501,0.062,2.262C116.936,100.447,116.629,101.186,116.202,101.826z
	 M81.537,96.345c0.28,0.521,0.483,1.096,0.59,1.703c0.13,0.742,0.11,1.494-0.05,2.207c1.262-0.155,2.536-0.289,3.816-0.397
	c-0.32-0.637-0.502-1.367-0.502-2.145c0-0.57,0.098-1.116,0.278-1.62C84.262,96.161,82.884,96.245,81.537,96.345z M103.226,99.851
	c1.069,0.089,2.125,0.193,3.16,0.313c0.216,0.025,0.433,0.051,0.647,0.077c-0.158-0.709-0.177-1.456-0.047-2.193
	c0.105-0.607,0.309-1.183,0.59-1.705c-1.348-0.1-2.724-0.184-4.131-0.25c0.18,0.503,0.277,1.05,0.277,1.62
	C103.724,98.487,103.543,99.216,103.226,99.851z M118.245,88.105c0.455,0.074,0.908,0.15,1.355,0.23
	c1.865,0.335,3.398,0.591,4.74,0.591c1.385,0,2.566-0.25,3.543-1.223l-6.109-0.592l0.219-0.486l-2.951,1.557l0.246-2.421
	c-0.396,0.378-0.951,0.649-1.699,0.714L118.245,88.105z M61.227,87.706c0.973,0.973,2.154,1.223,3.538,1.223
	c1.45,0,3.202-0.314,4.747-0.592c0.447-0.08,0.901-0.156,1.358-0.23l0.655-1.63c-0.747-0.063-1.303-0.335-1.699-0.711l0.248,2.421
	l-2.949-1.558l0.218,0.484L61.227,87.706z M82.066,86.776c2.085-0.16,4.257-0.281,6.48-0.36l1.005-2.556l-4.701,1.782v-1.613
	l-2.249,2.289l-0.488-2.416c-0.247,0.446-0.68,0.881-1.426,1.182L82.066,86.776z M100.631,86.418
	c2.195,0.079,4.345,0.199,6.416,0.358l1.379-1.693c-0.746-0.301-1.18-0.735-1.426-1.183l-0.489,2.419l-2.247-2.289v1.991
	l-4.436-1.826L100.631,86.418z M70.119,79.995c-0.082,0-0.189,0.032-0.309,0.093c-0.21,0.107-0.409,0.556-0.36,1.911
	c0.267-0.41,0.729-0.876,1.518-1.152C70.663,80.262,70.314,79.995,70.119,79.995z M118.147,80.845
	c0.602,0.209,1.08,0.552,1.428,1.021c0.03,0.044,0.062,0.087,0.09,0.13c0.049-1.354-0.15-1.801-0.361-1.908
	c-0.119-0.061-0.227-0.093-0.309-0.093C118.799,79.995,118.452,80.262,118.147,80.845z M108.854,78.461
	c-0.055,0-0.111,0.007-0.172,0.018c-0.235,0.041-0.561,0.409-0.918,1.716c0.605-0.508,1.324-0.631,1.787-0.649
	c-0.076-0.428-0.215-0.746-0.37-0.929C109.081,78.499,109.002,78.461,108.854,78.461z M79.561,79.544
	c0.463,0.02,1.182,0.143,1.787,0.648c-0.358-1.307-0.682-1.674-0.917-1.715c-0.061-0.011-0.118-0.018-0.173-0.018
	c-0.147,0-0.226,0.038-0.326,0.153C79.775,78.797,79.638,79.116,79.561,79.544z M58.888,74.355
	c-0.078,1.439-0.149,2.976-0.199,4.273c0.615-0.424,3.687-2.554,3.687-2.554l1.009,2.241c0.195-1.392,0.794-2.667,1.717-3.613
	c1.099-1.127,2.61-1.747,4.257-1.747c0.095,0,0.19,0.002,0.286,0.006c-0.583-2.554-0.516-4.9-0.217-6.813l-0.438-0.281
	c-0.02-0.012-2.471-1.541-5.295-1.541c-1.513,0-2.869,0.448-4.031,1.332c-2.159,1.642-3.515,3.157-4.336,4.273
	c0.162,0.936,0.345,1.875,0.549,2.809l3.149-0.933L58.888,74.355z M130.426,78.629c-0.051-1.299-0.122-2.834-0.2-4.272l-0.138-2.548
	l3.15,0.935c0.203-0.935,0.387-1.875,0.547-2.812c-0.82-1.115-2.176-2.631-4.334-4.272c-1.162-0.883-2.52-1.332-4.031-1.332
	c-2.824,0-5.276,1.529-5.301,1.544l-0.434,0.273c0.299,1.914,0.367,4.262-0.216,6.817c0.096-0.004,0.19-0.006,0.284-0.006
	c1.646,0,3.158,0.62,4.258,1.747c0.924,0.947,1.523,2.226,1.718,3.616l1.011-2.244C126.741,76.076,129.811,78.206,130.426,78.629z
	 M99.793,73.318l4.471-1.694v1.494c1.113-1.176,2.617-1.871,4.249-1.871c0.579,0,1.305,0.088,2.116,0.378
	c0.496-6.532,4.498-10.623,4.695-10.82l0.323-0.324c-1.767,0.462-3.815,1.276-5.955,2.381c-3.384,1.747-5.737,2.815-7.28,3.458
	c-0.125,0.568-0.271,1.105-0.445,1.623h0.052c0,0-0.798,1.933-0.854,2.071L99.793,73.318z M80.601,71.247
	c1.63,0,3.135,0.696,4.249,1.871v-1.874l4.465,1.838l-0.333-0.74l-0.126-0.269c-0.135-0.289-0.265-0.587-0.396-0.885l-1.456-3.247
	h0.143c-0.173-0.518-0.321-1.054-0.446-1.623c-1.542-0.643-3.896-1.712-7.278-3.459c-2.14-1.104-4.191-1.919-5.959-2.382
	l0.324,0.324c0.198,0.199,4.201,4.289,4.695,10.821C79.296,71.335,80.02,71.247,80.601,71.247z M69.202,60.21
	c0.531,0.466,1.01,1.014,1.435,1.64c0.151-0.354,0.259-0.563,0.283-0.609l0.597-1.141c-0.347-0.04-0.674-0.062-0.981-0.062
	C69.958,60.039,69.526,60.106,69.202,60.21z M118.194,61.24c0.023,0.046,0.133,0.256,0.283,0.609
	c0.425-0.625,0.904-1.173,1.436-1.64c-0.324-0.104-0.756-0.171-1.332-0.171c-0.308,0-0.637,0.021-0.983,0.062L118.194,61.24z
	 M64.345,45.944c-2.413,0-5.714,0.848-7.736,4.885c-1.353,2.708-2.045,6.178-2.067,10.343c2.243-1.272,5.082-2.543,7.872-2.856
	c0.895-1.613,2.555-3.612,5.435-4.156c0.886-0.167,1.744-0.249,2.624-0.249c3.185,0,6.564,1.079,11.663,3.723
	c1.639,0.851,2.964,1.479,4.02,1.945c-0.006-0.354-0.014-0.713-0.025-1.074L86.03,54.95c-5.239-2.521-10.479-5.039-15.715-7.535
	C68.294,46.453,66.23,45.944,64.345,45.944z M126.7,58.315c2.787,0.313,5.625,1.582,7.866,2.854
	c-0.024-4.165-0.718-7.634-2.071-10.341c-2.019-4.037-5.313-4.884-7.721-4.884c-1.881,0-3.943,0.509-5.966,1.471
	c-5.249,2.497-10.488,5.017-15.726,7.537l-0.102,3.551c-0.011,0.361-0.018,0.72-0.023,1.075c1.056-0.466,2.381-1.095,4.021-1.946
	c5.098-2.644,8.477-3.723,11.662-3.723c0.88,0,1.736,0.082,2.623,0.249C124.144,54.703,125.805,56.702,126.7,58.315z M97.708,17.517
	L98.95,7.405c-0.479,2.035-1.621,3.064-2.627,3.586c-1.437,0.745-3.12,1.162-5.008,1.244l0.093,5.282H97.708z M-2.544,100.906
	L11.81,86.044l7.139,6.896l-2.172,3.56l3.533-2.246l6.972,6.732l-14.355,14.863L-2.544,100.906z M12.103,32.397l12.54-10.523
	l5.44,6.483l-4.936-7.049l6.866-4.809l5.314,7.589l-1.626-3.19c-0.92-1.807-1.047-3.655-0.366-5.348
	c0.666-1.652,2.155-3.049,4.553-4.27c1.65-0.84,3.212-1.266,4.642-1.266c0.378,0,0.754,0.029,1.117,0.088
	c1.339,0.216,3.199,0.991,4.456,3.458l2.29,4.491L48.806,7.013l15.569-5.06l6.386,19.653l-14.205,4.616l0.17,0.334l-5.825,2.965
	l-0.017-0.024c-0.677,0.691-1.488,1.28-2.419,1.755l-0.964-1.528l0.834,1.595l-0.236,0.119c-0.944,0.428-1.947,0.645-2.982,0.645
	c-0.451,0-0.915-0.042-1.377-0.124c-0.401-0.07-0.785-0.189-1.152-0.355l1.278,1.823l-6.001,4.204l0.062,0.074l-6.121,5.135
	l-6.422,5.389L12.103,32.397z"/>
<path d="M64.052,41.486c-0.901,0.017-1.786,0.116-2.647,0.298c-1.483,0.314-2.892,0.88-4.177,1.719
	c-0.75,0.49-1.458,1.072-2.114,1.752c-0.95,0.985-1.795,2.166-2.495,3.571c-0.113,0.226-0.206,0.464-0.311,0.695
	c-0.316,0.697-0.6,1.416-0.842,2.157c-0.527,1.606-0.886,3.303-1.109,5.054c-0.1,0.786-0.18,1.58-0.227,2.384
	c-0.092,1.583-0.082,3.192,0.003,4.802c0.042,0.8,0.101,1.599,0.179,2.395c0.193,1.96,0.485,3.896,0.847,5.762
	c0.146,0.751,0.299,1.492,0.464,2.216c0.115,0.502,0.233,0.996,0.355,1.482l-1.746,0.518l2.583,5.335c0,0-1.821,2.328,0.339,5.885
	c2.159,3.558,4.435,7.837,6.896,7.56c0.001,0,0.002,0,0.003,0l0,0l0.004-0.001c0.694-0.078,1.128-0.21,1.403-0.356
	c2.228-0.569,4.484-1.088,6.725-1.559c13.215-2.772,39.519-2.775,52.735,0c2.248,0.472,4.508,0.99,6.736,1.561
	c0.275,0.146,0.711,0.277,1.406,0.355c2.459,0.277,4.734-4.002,6.896-7.56c2.158-3.557,0.338-5.885,0.338-5.885l2.582-5.335
	l-1.752-0.52c0.123-0.491,0.242-0.988,0.356-1.495c0.163-0.716,0.313-1.448,0.459-2.19c0.363-1.873,0.656-3.814,0.849-5.783
	c0.078-0.788,0.138-1.58,0.18-2.373c0.085-1.616,0.097-3.231,0.005-4.821c-0.047-0.798-0.125-1.587-0.224-2.368
	c-0.223-1.753-0.58-3.453-1.106-5.063c-0.242-0.74-0.524-1.459-0.84-2.157c-0.104-0.23-0.197-0.469-0.31-0.694
	c-0.703-1.405-1.551-2.585-2.502-3.571c-0.654-0.678-1.361-1.258-2.109-1.747c-1.286-0.841-2.694-1.407-4.18-1.723
	c-0.86-0.183-1.744-0.282-2.646-0.299c-1.466-0.027-2.97,0.165-4.472,0.549c-0.768,0.196-1.534,0.432-2.295,0.728
	c-0.474,0.186-0.943,0.389-1.41,0.61c-0.977,0.464-1.948,0.937-2.924,1.402c-0.648,0.31-1.297,0.622-1.944,0.932
	c-1.497,0.716-2.993,1.436-4.489,2.153c-0.581,0.279-1.162,0.556-1.742,0.835c-1.461,0.702-2.924,1.398-4.385,2.103
	c0.074-2.625,0.152-5.249,0.223-7.873l0.037-1.373h-1.965v-3.755l-2.765-6.462l5.532,2.573V23.629l-5.615,2.404l3.123-6.716H89.692
	l2.88,6.728l-5.922-2.754V33.57l5.91-2.53l-3.143,6.757v3.755h-1.962l0.036,1.373c0.07,2.625,0.149,5.249,0.223,7.873
	c-1.46-0.702-2.924-1.399-4.385-2.103c-0.58-0.279-1.161-0.556-1.741-0.835c-1.496-0.718-2.992-1.438-4.491-2.153
	c-0.648-0.31-1.293-0.622-1.942-0.931c-0.977-0.466-1.949-0.938-2.927-1.403c-0.467-0.222-0.938-0.425-1.411-0.608
	c-0.759-0.297-1.525-0.531-2.292-0.728C67.022,41.652,65.518,41.46,64.052,41.486z M74.317,84.356L74.317,84.356
	C74.46,84.642,74.319,84.362,74.317,84.356z M91.497,66.822c-1.005-2.69-0.808-5.634-0.894-8.454
	c-0.144-4.714-0.275-9.427-0.401-14.141h4.354h4.354c-0.127,4.714-0.258,9.427-0.402,14.141c-0.086,2.82,0.111,5.764-0.893,8.454
	c-0.365,0.979-0.783,1.962-1.22,2.92h-3.681C92.28,68.785,91.862,67.801,91.497,66.822z M118.036,45.79
	c6.043-2.876,12.807-2.291,16.069,4.234c2.032,4.064,2.496,9.221,2.161,14.339c-0.113,1.733-0.316,3.458-0.585,5.14
	c-0.308,1.921-0.693,3.777-1.122,5.508l-2.536-0.752c0,0,0.422,7.821,0.211,7.749c-0.211-0.07-4.741-3.218-4.741-3.218l-3.048,6.773
	l6.47,0.627v0.003c-2.248,5.513-6.543,4.829-11.633,3.915c-0.762-0.137-1.543-0.263-2.328-0.386l-2.156-5.364l1.846,0.279
	c1.234,0.188,1.551-0.156,1.625-0.638c0.072-0.479,0.205-1.354-1.148-1.561l-1.27-0.193l0.02-0.039
	c0.438-2.889,2.215-4.761,4.25-3.725c2.037,1.037,1.23,4.812,1.055,6.541c1.136-0.6,2.74-2.196,2.824-5.566
	c0.086-3.37-2.84-6.131-7.293-3.889c3.217-7.152-0.104-13.494-0.104-13.494s-5.062,5.071-4.097,12.859
	c-3.596-3.463-7.2-1.692-8.121,1.551c-0.92,3.242,0.146,5.246,1.037,6.151c0.345-1.704,0.713-5.546,2.955-5.934
	c2.242-0.389,3.392,1.927,2.953,4.814l0.006,0.045l-1.266-0.191c-1.354-0.205-1.488,0.669-1.563,1.15
	c-0.072,0.479,0.129,0.9,1.363,1.09l1.848,0.279l-3.871,4.754c-2.776-0.231-5.621-0.386-8.491-0.469L96.75,80.98l5.713,2.352v-9.103
	l-5.928,2.248l2.793-6.737h-0.004c0.28-0.659,0.551-1.323,0.799-1.985c0.342-0.918,0.558-1.829,0.705-2.738
	c0.149-0.917,0.229-1.836,0.268-2.763c0.053-1.248,0.049-2.509,0.088-3.807c0.047-1.548,0.086-3.096,0.132-4.643
	C106.883,51.125,112.454,48.445,118.036,45.79z M114.795,84.356h0.002C114.795,84.362,114.654,84.642,114.795,84.356z
	 M91.799,40.757c0-1.522,1.235-2.758,2.758-2.758c1.523,0,2.76,1.235,2.76,2.758c0,1.523-1.234,2.759-2.76,2.759
	C93.035,43.515,91.799,42.28,91.799,40.757z M87.799,53.804c0.045,1.548,0.084,3.097,0.131,4.646c0.04,1.297,0.035,2.56,0.088,3.807
	c0.039,0.927,0.118,1.845,0.267,2.763c0.148,0.91,0.363,1.82,0.706,2.738c0.247,0.662,0.517,1.326,0.798,1.985h-0.002l0.208,0.463
	c0.163,0.371,0.323,0.745,0.493,1.108l0.136,0.292l2.188,4.865l-6.162-2.537v9.103l6.064-2.299l-2.926,7.439
	c-2.881,0.083-5.735,0.236-8.521,0.471l-3.871-4.755l1.847-0.279c1.235-0.188,1.437-0.609,1.364-1.09
	c-0.073-0.481-0.208-1.355-1.562-1.15l-1.266,0.191l0.007-0.045c-0.438-2.889,0.709-5.203,2.952-4.814
	c2.243,0.388,2.611,4.229,2.956,5.935c0.89-0.906,1.957-2.91,1.037-6.152c-0.92-3.243-4.526-5.014-8.122-1.551
	c0.967-7.789-4.095-12.859-4.095-12.859s-3.32,6.342-0.105,13.494c-4.452-2.242-7.378,0.519-7.293,3.889s1.691,4.969,2.825,5.566
	c-0.177-1.729-0.983-5.504,1.053-6.541c2.037-1.036,3.813,0.836,4.25,3.725l0.02,0.039l-1.269,0.193
	c-1.354,0.205-1.222,1.08-1.149,1.561c0.073,0.48,0.39,0.824,1.625,0.638l1.845-0.279l-2.157,5.364
	c-0.786,0.123-1.568,0.249-2.33,0.386c-5.098,0.914-9.393,1.598-11.627-3.918l0,0l6.469-0.627l-3.048-6.773
	c0,0-4.531,3.146-4.742,3.219c-0.212,0.071,0.21-7.749,0.21-7.749l-2.533,0.75c-0.431-1.729-0.818-3.584-1.127-5.505
	c-0.27-1.681-0.474-3.404-0.588-5.138C52.506,59.247,52.969,54.09,55,50.024c3.267-6.525,10.047-7.11,16.09-4.234
	C76.658,48.444,82.229,51.124,87.799,53.804z M132.652,99.435c-0.771-0.332-1.629-0.613-2.426-0.873
	c-2.363-0.767-4.793-1.386-7.222-1.908c-8.762-1.895-18.604-2.563-28.45-2.563c-9.844,0.001-19.692,0.674-28.454,2.563
	c-2.424,0.521-4.847,1.144-7.202,1.908c-0.804,0.26-1.667,0.541-2.443,0.873c-1.943,0.844-3.013-1.611-1.056-2.455
	c0.821-0.354,1.727-0.657,2.574-0.937c2.438-0.796,4.945-1.438,7.452-1.981c9.216-2,19.175-2.729,29.131-2.729
	c9.955,0,19.905,0.728,29.123,2.729c2.506,0.545,5.014,1.188,7.454,1.981c0.851,0.277,1.759,0.58,2.58,0.937
	C135.665,97.823,134.604,100.278,132.652,99.435z M124.771,114.247c0.681,0.281,1.617,0.542,2.599,0.419
	c1.108-0.138,2.186-0.708,2.901-2.111l0.076-0.162c0.616-1.36,0.286-2.516-0.386-3.412c-0.571-0.765-1.407-1.303-2.02-1.584
	c-0.021-0.011-0.082-0.035-0.189-0.08l-0.006-0.006h-0.004v0.002c-6.529-2.684-13.912-4.471-21.565-5.358
	c-2.46-0.286-4.984-0.479-7.552-0.583c-13.029-0.52-26.362,1.463-37.264,5.945l-0.002-0.006c-0.032,0.014-0.097,0.043-0.192,0.086
	c-0.612,0.283-1.448,0.82-2.018,1.584c-0.671,0.896-1.001,2.052-0.383,3.412l0.075,0.162c0.716,1.403,1.793,1.973,2.902,2.111
	c0.978,0.123,1.911-0.136,2.592-0.416l0.001,0.003l0.003-0.001l0.006-0.006c2.37-0.978,4.929-1.823,7.627-2.533
	c2.708-0.714,5.538-1.287,8.438-1.721C95.411,107.751,112.467,109.168,124.771,114.247z M79.956,107.211
	c-3.03,0.453-5.973,1.049-8.774,1.786c-2.808,0.738-5.492,1.627-8.003,2.663l-0.001-0.003l-0.002,0.001l-0.006,0.007
	c-0.311,0.128-0.71,0.25-1.043,0.208c-0.204-0.023-0.423-0.169-0.614-0.544c-0.03-0.061-0.02-0.033-0.029-0.055
	c-0.117-0.258-0.051-0.482,0.082-0.659c0.233-0.313,0.61-0.548,0.892-0.679l0.076-0.03H62.53v-0.007
	c10.486-4.313,23.36-6.217,35.977-5.713c2.42,0.095,4.863,0.285,7.309,0.569c7.408,0.861,14.518,2.576,20.76,5.144l0.006,0.006
	l0.004,0.001l0.002-0.003c0.011,0.006,0.004,0.005,0.066,0.033c0.283,0.129,0.66,0.364,0.893,0.679
	c0.134,0.177,0.201,0.401,0.082,0.661c-0.01,0.025,0.002-0.006-0.028,0.053c-0.188,0.375-0.41,0.521-0.613,0.544
	c-0.334,0.042-0.731-0.08-1.043-0.208C113.139,106.379,95.458,104.894,79.956,107.211z"/>
<path fill="#EF4135" d="M64.857,101.569c0.596,2.074-0.346,4.166-2.105,4.673c-1.759,0.506-3.669-0.767-4.265-2.841
	c-0.596-2.074,0.346-4.168,2.105-4.674C62.351,98.224,64.261,99.496,64.857,101.569z M128.521,98.728
	c-1.76-0.504-3.67,0.769-4.267,2.842c-0.596,2.074,0.347,4.166,2.104,4.673c1.759,0.506,3.67-0.767,4.267-2.841
	C131.223,101.328,130.279,99.233,128.521,98.728z"/>
<path d="M125.543,60.043c4,0.051,8.488,2.773,10.724,4.32c-0.113,1.733-0.315,3.458-0.585,5.14
	c-0.883-1.337-2.446-3.228-5.141-5.276c-5.123-3.896-11.39,0.127-11.39,0.127c0.865-1.983,2.086-3.159,3.494-3.771
	c-1.313-3.818-7.584-2.519-13.778,0.681c-4.213,2.175-6.764,3.26-8.039,3.756c0.149-0.917,0.229-1.836,0.268-2.763
	c1.141-0.39,3.258-1.234,6.713-3.024c5.715-2.964,9.313-4.023,13.123-3.304C123.667,56.445,125.004,58.771,125.543,60.043z
	 M68.183,55.928c-2.734,0.517-4.073,2.843-4.611,4.114c-4.004,0.051-8.496,2.777-10.729,4.324c0.114,1.733,0.318,3.458,0.588,5.138
	c0.883-1.338,2.447-3.229,5.142-5.278c5.122-3.896,11.388,0.127,11.388,0.127c-0.865-1.983-2.085-3.159-3.492-3.771
	c1.313-3.818,7.584-2.519,13.78,0.681c4.211,2.175,6.761,3.26,8.036,3.756c-0.149-0.917-0.228-1.836-0.267-2.763
	c-1.14-0.391-3.257-1.234-6.711-3.024C75.592,56.267,71.993,55.208,68.183,55.928z M76.458,95.292
	c-1.806,0.271-2.992,2.083-2.647,4.047c0.345,1.966,2.09,3.341,3.896,3.07c1.807-0.271,2.992-2.082,2.647-4.049
	C80.009,96.396,78.265,95.021,76.458,95.292z M108.76,98.36c-0.346,1.967,0.84,3.777,2.646,4.049
	c1.807,0.271,3.551-1.104,3.895-3.07c0.346-1.965-0.84-3.776-2.645-4.047C110.85,95.021,109.104,96.396,108.76,98.36z"/>
<path fill="#CC0000" d="M137.485,74.276c0.163-0.716,0.314-1.448,0.459-2.19c0.753-0.71,2.067-1.123,3.536-0.993
	c2.188,0.195,3.862,1.506,3.735,2.926s-2.004,2.416-4.192,2.222C139.346,76.091,137.979,75.284,137.485,74.276z M142.372,67.824
	c2.196,0.02,3.989-1.121,4.004-2.547c0.014-1.426-1.76-2.597-3.957-2.618c-1.475-0.014-2.752,0.503-3.446,1.271
	c-0.042,0.793-0.101,1.584-0.179,2.374C139.422,67.186,140.78,67.81,142.372,67.824z M142.691,60.079
	c2.181-0.287,3.795-1.667,3.608-3.081c-0.188-1.414-2.104-2.328-4.282-2.04c-1.488,0.196-2.697,0.906-3.265,1.783
	c0.099,0.781,0.177,1.57,0.224,2.368C139.731,59.871,141.14,60.284,142.691,60.079z M141.452,51.74
	c2.053-0.786,3.305-2.503,2.795-3.835c-0.513-1.332-2.588-1.775-4.642-0.989c-1.455,0.558-2.491,1.582-2.799,2.605
	c0.315,0.697,0.598,1.417,0.84,2.158C138.561,52.226,140.006,52.292,141.452,51.74z M133.995,45.256
	c0.95-0.024,2.061-0.473,3.02-1.321c1.646-1.456,2.213-3.504,1.27-4.572c-0.945-1.068-3.047-0.753-4.691,0.704
	c-1.174,1.039-1.785,2.373-1.705,3.442C132.635,43.998,133.34,44.578,133.995,45.256z M127.708,41.786
	c0.809-0.581,1.474-1.699,1.713-3.062c0.385-2.164-0.445-4.121-1.851-4.369c-1.403-0.248-2.854,1.306-3.235,3.47
	c-0.263,1.485,0.055,2.857,0.728,3.661C125.961,41.503,126.846,41.603,127.708,41.786z M120.999,38.387
	c-0.543-2.13-2.104-3.569-3.486-3.218c-1.383,0.354-2.063,2.366-1.518,4.495c0.391,1.527,1.305,2.688,2.301,3.099
	c0.761-0.297,1.527-0.532,2.295-0.729C121.168,41.178,121.363,39.815,120.999,38.387z M113.622,40.818
	c-1.033-1.94-2.892-2.97-4.148-2.3c-1.26,0.671-1.443,2.787-0.41,4.727c0.736,1.385,1.895,2.292,2.954,2.462
	c0.647-0.31,1.296-0.623,1.944-0.932C114.483,43.805,114.391,42.263,113.622,40.818z M107.27,43.781
	c-1.031-1.94-2.891-2.969-4.148-2.299c-1.256,0.67-1.44,2.787-0.41,4.727c0.767,1.438,1.982,2.369,3.074,2.486
	c0.58-0.279,1.161-0.557,1.742-0.835C108.131,46.902,108.075,45.292,107.27,43.781z M47.633,71.094
	c-2.189,0.195-3.862,1.506-3.735,2.926c0.126,1.42,2.003,2.416,4.192,2.222c1.67-0.149,3.034-0.948,3.533-1.949
	c-0.165-0.724-0.318-1.465-0.464-2.216C50.404,71.372,49.095,70.964,47.633,71.094z M46.695,62.659
	c-2.197,0.021-3.969,1.192-3.956,2.618c0.013,1.426,1.805,2.566,4.003,2.547c1.586-0.015,2.939-0.634,3.57-1.511
	c-0.078-0.796-0.137-1.595-0.179-2.395C49.437,63.157,48.163,62.646,46.695,62.659z M47.098,54.958
	c-2.179-0.288-4.098,0.626-4.283,2.04c-0.186,1.414,1.429,2.794,3.608,3.081c1.548,0.204,2.95-0.206,3.708-0.962
	c0.047-0.804,0.127-1.598,0.227-2.384C49.787,55.859,48.581,55.153,47.098,54.958z M49.508,46.916
	c-2.052-0.786-4.13-0.343-4.639,0.989c-0.51,1.332,0.741,3.049,2.793,3.835c1.444,0.552,2.89,0.485,3.804-0.061
	c0.243-0.741,0.526-1.459,0.842-2.157C52.001,48.499,50.963,47.474,49.508,46.916z M57.228,43.504
	c0.078-1.068-0.533-2.399-1.705-3.438c-1.646-1.457-3.747-1.772-4.692-0.704c-0.944,1.068-0.377,3.116,1.269,4.572
	c0.958,0.848,2.065,1.295,3.014,1.321C55.77,44.576,56.478,43.994,57.228,43.504z M64.052,41.486
	c0.673-0.804,0.99-2.176,0.727-3.661c-0.383-2.164-1.832-3.718-3.236-3.47s-2.233,2.205-1.85,4.369
	c0.241,1.36,0.904,2.479,1.712,3.061C62.267,41.603,63.151,41.503,64.052,41.486z M68.525,42.037
	c0.767,0.196,1.533,0.431,2.292,0.728c0.996-0.41,1.912-1.571,2.303-3.1c0.544-2.129-0.136-4.142-1.517-4.495
	c-1.382-0.352-2.943,1.088-3.487,3.218C67.751,39.815,67.946,41.179,68.525,42.037z M80.052,43.245
	c1.032-1.939,0.849-4.056-0.41-4.727c-1.258-0.67-3.117,0.359-4.149,2.3c-0.769,1.446-0.861,2.988-0.338,3.958
	c0.648,0.309,1.294,0.621,1.942,0.931C78.157,45.538,79.315,44.631,80.052,43.245z M86.402,46.209
	c1.033-1.939,0.85-4.057-0.409-4.727c-1.259-0.67-3.117,0.358-4.15,2.299c-0.804,1.512-0.86,3.121-0.255,4.079
	c0.581,0.279,1.162,0.556,1.741,0.835C84.42,48.578,85.638,47.646,86.402,46.209z M89.477,95.046c-1.258,0-2.286,1.201-2.286,2.668
	c0,1.468,1.028,2.667,2.286,2.667h10.162c1.256,0,2.285-1.199,2.285-2.667c0-1.467-1.029-2.668-2.285-2.668H89.477z M97.316,66.835
	c0-1.522-1.235-2.758-2.76-2.758c-1.522,0-2.758,1.236-2.758,2.758c0,1.523,1.236,2.758,2.758,2.758
	C96.081,69.593,97.316,68.358,97.316,66.835z M94.557,63.074c1.523,0,2.76-1.236,2.76-2.758c0-1.523-1.236-2.758-2.76-2.758
	c-1.522,0-2.758,1.233-2.758,2.758C91.799,61.839,93.035,63.074,94.557,63.074z M94.557,56.554c1.523,0,2.76-1.235,2.76-2.759
	c0-1.522-1.236-2.758-2.76-2.758c-1.522,0-2.758,1.235-2.758,2.758C91.799,55.319,93.035,56.554,94.557,56.554z M94.557,50.034
	c1.523,0,2.76-1.235,2.76-2.758c0-1.523-1.236-2.758-2.76-2.758c-1.522,0-2.758,1.234-2.758,2.758
	C91.799,48.799,93.035,50.034,94.557,50.034z M94.557,43.515c1.523,0,2.76-1.235,2.76-2.759c0-1.522-1.236-2.758-2.76-2.758
	c-1.522,0-2.758,1.235-2.758,2.758C91.799,42.28,93.035,43.515,94.557,43.515z M139.711,9.289l-4.465-1.713l-6.115,15.931
	l4.465,1.713L139.711,9.289z M113.557,18.701l8.807-15.307l5.25,1.406l-0.143,17.629l-4.678-1.254l0.272-3.428l-3.44-0.922
	l-1.479,3.105L113.557,18.701z M120.829,13.938l2.438,0.652l0.779-7.615L120.829,13.938z M104.327,17.623l-4.746-0.582l2.08-16.937
	l6.866,0.843c1.634,0.201,2.908,0.693,3.83,1.477c0.92,0.784,1.338,1.938,1.25,3.458c-0.133,1.085-0.437,1.96-0.903,2.625
	c-0.474,0.665-1.189,1.119-2.158,1.361c0.707,0.259,1.244,0.592,1.613,0.998c0.368,0.407,0.521,0.882,0.452,1.424l-0.299,4.146
	c-0.078,0.627-0.041,1.062,0.108,1.304c0.148,0.242,0.322,0.375,0.521,0.399l-0.065,0.533l-4.187-0.514
	c-0.608-0.075-0.992-0.204-1.149-0.387c-0.156-0.183-0.197-0.587-0.119-1.215l0.434-3.535c0.068-0.56-0.008-0.99-0.229-1.293
	c-0.224-0.303-0.688-0.498-1.396-0.584l-1.092-0.135L104.327,17.623z M105.506,8.01l1.092,0.135c0.451,0.055,0.891-0.056,1.313-0.33
	c0.422-0.275,0.68-0.777,0.77-1.506l0.061-0.483c-0.076-1.007-0.354-1.623-0.836-1.845c-0.48-0.223-1.096-0.379-1.844-0.472
	L105.506,8.01z M162.939,45.349l2.174-2.591l-4.801-4.027l2.34-2.787l4.481,3.761l2.289-2.729l-4.481-3.762l2.106-2.512l4.802,4.028
	l2.06-2.453l-8.441-7.083l-10.969,13.072L162.939,45.349z M152.704,36.759l9.789-13.978l-3.918-2.743l-9.787,13.979L152.704,36.759z
	 M135.725,26.092l8.271-14.925l6.053,3.355c1.438,0.797,2.438,1.73,2.998,2.804c0.561,1.072,0.516,2.297-0.137,3.675
	c-0.529,0.956-1.138,1.654-1.822,2.094c-0.687,0.44-1.521,0.593-2.51,0.455c0.558,0.505,0.932,1.016,1.121,1.53
	c0.188,0.515,0.151,1.012-0.113,1.49l-1.83,3.73c-0.307,0.554-0.437,0.97-0.387,1.25c0.047,0.281,0.157,0.47,0.332,0.565
	l-0.263,0.471l-3.688-2.045c-0.537-0.297-0.844-0.56-0.92-0.789c-0.078-0.229,0.037-0.619,0.344-1.172l1.729-3.115
	c0.271-0.492,0.363-0.921,0.271-1.284c-0.094-0.364-0.45-0.72-1.073-1.064l-0.961-0.533l-3.229,5.827L135.725,26.092z
	 M144.604,19.94l0.961,0.533c0.396,0.221,0.846,0.282,1.34,0.187c0.494-0.097,0.922-0.466,1.275-1.109l0.236-0.426
	c0.309-0.962,0.278-1.637-0.084-2.023c-0.362-0.388-0.873-0.763-1.531-1.127L144.604,19.94z M84.82,17.165L84.522,0.103l5.671-0.1
	c2.792-0.049,4.681,0.354,5.665,1.208c0.984,0.854,1.494,2.136,1.521,3.844c0.039,2.221-0.59,3.667-1.885,4.338
	c-1.294,0.671-2.833,1.022-4.615,1.054c-0.118,0.002-0.237,0-0.356-0.007c-0.119-0.006-0.228-0.008-0.327-0.007
	c-0.119,0.002-0.238,0-0.356-0.007c-0.119-0.007-0.238-0.009-0.357-0.007l0.116,6.661L84.82,17.165z M89.354,3.041l0.077,4.356
	c1.465-0.025,2.352-0.269,2.661-0.727c0.311-0.458,0.455-1.147,0.439-2.07c-0.012-0.598-0.23-1.013-0.66-1.244
	c-0.432-0.231-0.992-0.341-1.685-0.329L89.354,3.041z M41.085,27.5c0.807,1.583,1.797,2.479,2.969,2.687
	c1.172,0.208,2.273,0.078,3.302-0.389c0.053-0.027,0.101-0.052,0.145-0.074s0.093-0.048,0.146-0.074
	c0.935-0.478,1.706-1.08,2.311-1.812c0.606-0.73,0.831-1.334,0.677-1.812l0.837,1.185l2.832-1.441l-4.164-8.173l-5.583,2.845
	l1.384,2.717l1.456-0.742l1,1.963c0.171,0.335,0.176,0.673,0.016,1.014s-0.387,0.613-0.681,0.821
	c-0.017,0.01-0.044,0.023-0.079,0.041c-0.035,0.019-0.071,0.036-0.106,0.055c-0.017,0.01-0.039,0.021-0.066,0.033
	c-0.026,0.015-0.048,0.025-0.066,0.034c-0.369,0.149-0.757,0.185-1.164,0.104c-0.408-0.079-0.717-0.325-0.925-0.736l-4.188-8.219
	c-0.156-0.304-0.132-0.618,0.07-0.941c0.202-0.322,0.471-0.59,0.809-0.8c0.017-0.01,0.039-0.02,0.065-0.034
	c0.026-0.014,0.048-0.024,0.066-0.034c0.317-0.16,0.644-0.24,0.978-0.238c0.334,0.001,0.579,0.154,0.734,0.459l1,1.963l4.313-2.198
	l-0.674-1.324c-0.737-1.445-1.783-2.278-3.14-2.498c-1.356-0.22-2.907,0.115-4.654,1.005c-1.976,1.007-3.209,2.119-3.7,3.338
	c-0.49,1.218-0.39,2.505,0.3,3.858L41.085,27.5z M41.359,32.985l-9.788-13.979l-3.917,2.743l9.788,13.979L41.359,32.985z
	 M60.894,22.919l-2.17-6.677l2.994-0.973l2.17,6.677l4.604-1.496L63.219,4.221l-4.604,1.495l2.003,6.165l-2.994,0.974L55.621,6.69
	l-4.548,1.478l5.274,16.229L60.894,22.919z M29.27,42.617l-4.513-5.378l2.412-2.024l4.513,5.378l3.708-3.11L24.421,24.41
	l-3.708,3.112l4.167,4.965l-2.412,2.023l-4.167-4.966l-3.663,3.074l10.968,13.072L29.27,42.617z M136.859,128.476l-4.578,1.575
	l0.775,2.255c0.174,0.5,0.155,0.938-0.05,1.316c-0.205,0.377-0.489,0.647-0.853,0.811c-0.013,0.021-0.038,0.039-0.075,0.053
	c-0.037,0.013-0.076,0.023-0.113,0.039c-0.018,0.004-0.041,0.014-0.069,0.021c-0.026,0.01-0.051,0.02-0.069,0.024
	c-0.365,0.091-0.73,0.066-1.093-0.071c-0.36-0.137-0.604-0.392-0.733-0.763l-2.943-8.553c-0.141-0.404-0.104-0.754,0.107-1.055
	c0.211-0.299,0.489-0.525,0.834-0.681c0.02-0.006,0.043-0.014,0.069-0.023c0.026-0.009,0.052-0.017,0.07-0.022
	s0.043-0.014,0.069-0.024c0.027-0.009,0.051-0.017,0.068-0.021c0.35-0.084,0.689-0.08,1.025,0.013c0.336,0.092,0.559,0.3,0.67,0.622
	l0.719,2.084l4.771-1.645l-0.482-1.404c-0.557-1.615-1.525-2.623-2.91-3.022c-1.381-0.398-3-0.279-4.854,0.356
	c-2.282,0.787-3.726,1.785-4.323,2.994c-0.601,1.209-0.681,2.453-0.24,3.728l2.478,7.194c0.641,1.856,1.6,3.018,2.879,3.479
	s2.969,0.332,5.064-0.39c0.28-0.097,0.577-0.212,0.887-0.347c0.309-0.135,0.612-0.287,0.908-0.461c1-0.563,1.838-1.311,2.51-2.246
	c0.672-0.937,0.797-2.019,0.375-3.246L136.859,128.476z M120.954,134.997c0.321,1.66,0.067,3.076-0.765,4.247
	s-2.414,1.981-4.746,2.438c-2.37,0.461-4.101,0.228-5.188-0.701c-1.088-0.93-1.771-2.098-2.043-3.506l-1.453-7.471
	c-0.325-1.677,0.066-2.982,1.175-3.922c1.108-0.938,2.549-1.578,4.315-1.922c0.232-0.045,0.474-0.083,0.719-0.113
	c0.246-0.029,0.488-0.062,0.726-0.089c1.272-0.091,2.483,0.101,3.638,0.572c1.151,0.472,1.875,1.472,2.17,2.996L120.954,134.997z
	 M116.372,136.802l-1.658-8.524c-0.092-0.471-0.324-0.791-0.699-0.961c-0.377-0.17-0.762-0.228-1.152-0.168
	c-0.02,0.004-0.033,0.008-0.045,0.01c-0.008,0.002-0.021,0.005-0.043,0.009c-0.406,0.079-0.76,0.27-1.053,0.569
	c-0.297,0.302-0.396,0.695-0.303,1.182l1.658,8.525c0.092,0.47,0.33,0.793,0.719,0.97c0.387,0.178,0.785,0.229,1.192,0.147
	c0.021-0.004,0.033-0.009,0.044-0.011c0.01-0.002,0.022-0.005,0.043-0.009c0.387-0.092,0.721-0.288,1.006-0.587
	S116.463,137.271,116.372,136.802z M147.836,112.079l-4.642,2.468l0.248,7.615l-3.213-6.04l-4.037,2.146l8.011,15.065l4.039-2.146
	l-1.841-3.461l0.214-1.941l4.774,3.729l4.457-2.369l-8.369-6.315L147.836,112.079z M175.04,103.841l-2.604-10.331l-3.477,3.021
	l1.631,5.678l-5.418-2.385l-3.607,3.137l9.846,4.037l4.959,5.705l3.631-3.158L175.04,103.841z M162.036,119.263l-2.14-2.943
	l4.731-3.438L162.534,110l-4.732,3.439l-1.928-2.653l5.068-3.685l-1.883-2.592l-8.914,6.479l10.029,13.806l8.916-6.478l-1.988-2.736
	L162.036,119.263z M98.195,125.887l0.228,6.479l-3.146,0.109l-0.227-6.479l-4.778,0.167l0.596,17.054l4.777-0.166l-0.244-7.016
	l3.146-0.11l0.246,7.019l4.838-0.17l-0.596-17.055L98.195,125.887z M20.079,96.531l-8.875,5.642l5.457-8.94l-4.807-4.644L0,100.862
	l3.267,3.158l8.683-9.891l-6.695,11.809l2.372,2.291l11.566-7.104l-9.43,9.166l3.119,3.013l11.854-12.274L20.079,96.531z
	 M73.742,125.135c0.818,0.893,1.092,2.086,0.82,3.584c-0.265,1.063-0.671,1.895-1.219,2.495c-0.549,0.604-1.317,0.968-2.307,1.09
	c0.669,0.343,1.163,0.738,1.479,1.188s0.409,0.938,0.276,1.468l-0.802,4.079c-0.153,0.611-0.169,1.049-0.05,1.31
	c0.119,0.258,0.274,0.409,0.467,0.459l-0.13,0.521l-4.092-1.021c-0.596-0.147-0.96-0.322-1.094-0.522
	c-0.133-0.2-0.124-0.607,0.029-1.222l0.862-3.455c0.136-0.547,0.112-0.984-0.071-1.313c-0.183-0.328-0.622-0.577-1.313-0.75
	l-1.066-0.266l-1.612,6.464l-4.639-1.156l4.128-16.558l6.714,1.674C71.716,123.599,72.923,124.244,73.742,125.135z M69.735,128.071
	c0.047-1.01-0.154-1.653-0.604-1.934c-0.451-0.279-1.041-0.512-1.771-0.693l-1.097,4.399l1.066,0.267
	c0.442,0.111,0.889,0.056,1.342-0.166c0.453-0.223,0.769-0.688,0.946-1.4L69.735,128.071z M28.076,103.241l-10.03,13.806
	l3.868,2.813l10.03-13.808L28.076,103.241z M59.111,124.812l-2.851,7.056c-0.633,1.567-1.618,2.616-2.953,3.146
	c-1.335,0.529-3.104,0.35-5.307-0.541c-2.24-0.904-3.563-2.043-3.97-3.414c-0.407-1.371-0.342-2.723,0.195-4.054l2.851-7.056
	c0.64-1.583,1.68-2.466,3.121-2.649c1.44-0.182,2.996,0.064,4.667,0.739c0.22,0.089,0.442,0.188,0.666,0.296
	c0.223,0.107,0.441,0.216,0.655,0.32c1.117,0.617,2.03,1.438,2.738,2.46C59.631,122.137,59.694,123.37,59.111,124.812z
	 M54.624,121.646c-0.222-0.35-0.514-0.604-0.875-0.77c-0.019-0.007-0.032-0.013-0.042-0.017c-0.01-0.004-0.023-0.01-0.041-0.019
	c-0.386-0.153-0.784-0.188-1.195-0.096c-0.411,0.092-0.709,0.369-0.894,0.829l-3.254,8.053c-0.179,0.443-0.154,0.846,0.074,1.205
	c0.228,0.358,0.535,0.616,0.921,0.772c0.018,0.007,0.032,0.013,0.041,0.017c0.009,0.004,0.023,0.009,0.042,0.018
	c0.374,0.133,0.761,0.149,1.163,0.057c0.401-0.096,0.692-0.365,0.871-0.81l3.254-8.055C54.868,122.39,54.846,121.994,54.624,121.646
	z M41.862,112.399l-4.392,8.854l1.666-10.429l-4.141-2.393l-8.532,14.777l3.96,2.288l4.213-8.544l-1.486,10.118l4.193,2.421
	l8.532-14.778L41.862,112.399z"/>
</svg>
